<?xml version="1.0" encoding="UTF-8"?>
<!DOCTYPE svg PUBLIC "-//W3C//DTD SVG 1.1//EN" "http://www.w3.org/Graphics/SVG/1.1/DTD/svg11.dtd">
<!-- Creator: CorelDRAW 2021 (64-Bit) -->
<svg xmlns="http://www.w3.org/2000/svg" xml:space="preserve" width="10.3488mm" height="10.7952mm" version="1.1" style="shape-rendering:geometricPrecision; text-rendering:geometricPrecision; image-rendering:optimizeQuality; fill-rule:evenodd; clip-rule:evenodd"
viewBox="0 0 24.52 25.58"
 xmlns:xlink="http://www.w3.org/1999/xlink"
 xmlns:xodm="http://www.corel.com/coreldraw/odm/2003">
 <defs>
  <style type="text/css">
   <![CDATA[
    .fil0 {fill:black}
    .fil1 {fill:white}
    .fil2 {fill:black;fill-rule:nonzero}
   ]]>
  </style>
 </defs>
 <g id="Capa_x0020_1">
  <metadata id="CorelCorpID_0Corel-Layer"/>
  <polygon class="fil0" points="3.85,4.74 4.74,10.09 -0,0 15.16,8.52 15.08,8.7 "/>
  <polygon class="fil0" points="10.27,20.84 21.9,12.72 21.21,12.43 21.54,11.99 22.45,11.94 24.52,12.61 9.22,25.58 6.01,12.91 6.14,12.08 "/>
  <g id="_2142161560016">
   <path class="fil1" d="M11.49 8.41c0.58,-0.55 1.25,-0.99 1.99,-1.31 0.81,-0.35 1.68,-0.52 2.56,-0.52 0.58,0 1.15,0.07 1.7,0.22 0.54,0.14 1.06,0.36 1.55,0.64 0.47,0.27 0.91,0.6 1.3,0.98 0.4,0.38 0.74,0.8 1.03,1.26l0.42 0.66 -3.28 2.1 -0.4 -0.77c-0.23,-0.45 -0.55,-0.82 -0.98,-1.1 -0.41,-0.27 -0.86,-0.39 -1.35,-0.39 -0.35,0 -0.68,0.07 -1,0.22 -0.33,0.15 -0.61,0.36 -0.85,0.63 -0.26,0.28 -0.45,0.6 -0.59,0.95 -0.15,0.37 -0.22,0.76 -0.22,1.17 0,0.4 0.07,0.79 0.22,1.17 0.14,0.35 0.33,0.67 0.59,0.95 0.24,0.27 0.53,0.47 0.85,0.63 0.32,0.15 0.65,0.22 1,0.22 0.49,0 0.94,-0.12 1.35,-0.39 0.42,-0.28 0.74,-0.65 0.98,-1.1l0.4 -0.77 3.28 2.1 -0.42 0.66c-0.29,0.46 -0.64,0.89 -1.03,1.26 -0.39,0.38 -0.83,0.7 -1.3,0.98 -0.49,0.28 -1.01,0.49 -1.55,0.64 -0.56,0.15 -1.13,0.22 -1.7,0.22 -0.89,0 -1.75,-0.17 -2.56,-0.52 -0.78,-0.33 -1.49,-0.8 -2.09,-1.4 -0.6,-0.6 -1.07,-1.31 -1.4,-2.09 -0.09,-0.22 -0.17,-0.44 -0.24,-0.66l-3.44 0 -0.17 -0.34 0 4.88 -3.86 0 0 -12.89 9.21 0 0 1.71zm-1.32 1.79l-4.04 0 0 1.18 3.58 0c0.07,-0.27 0.17,-0.53 0.28,-0.79 0.06,-0.13 0.12,-0.26 0.18,-0.39z"/>
  </g>
  <path class="fil2" d="M6.79 14.27l-1.05 -2.1 3.58 0 0 2.1 -2.53 0zm-3.73 -6.78l7.63 0 0 1.92 -5.36 0 0 9.39 -2.28 0 0 -11.31zm17.9 8.71c-0.26,0.41 -0.56,0.78 -0.91,1.11 -0.35,0.33 -0.73,0.62 -1.15,0.86 -0.42,0.24 -0.87,0.43 -1.36,0.56 -0.48,0.13 -0.98,0.19 -1.5,0.19 -0.8,0 -1.55,-0.15 -2.25,-0.45 -0.7,-0.3 -1.32,-0.71 -1.84,-1.23 -0.52,-0.52 -0.93,-1.14 -1.23,-1.84 -0.3,-0.7 -0.45,-1.46 -0.45,-2.25 0,-0.8 0.15,-1.55 0.45,-2.25 0.3,-0.7 0.71,-1.32 1.23,-1.84 0.52,-0.52 1.13,-0.93 1.84,-1.23 0.7,-0.3 1.46,-0.45 2.25,-0.45 0.52,0 1.02,0.06 1.5,0.19 0.48,0.13 0.94,0.31 1.36,0.56 0.42,0.24 0.8,0.53 1.15,0.86 0.35,0.33 0.65,0.7 0.91,1.11l-1.89 1.21c-0.3,-0.58 -0.72,-1.05 -1.24,-1.4 -0.53,-0.35 -1.12,-0.52 -1.79,-0.52 -0.47,0 -0.92,0.1 -1.34,0.3 -0.42,0.2 -0.79,0.47 -1.1,0.81 -0.31,0.34 -0.56,0.74 -0.74,1.19 -0.18,0.46 -0.27,0.94 -0.27,1.46 0,0.52 0.09,1 0.27,1.46 0.18,0.46 0.43,0.86 0.74,1.19 0.31,0.34 0.68,0.61 1.1,0.81 0.42,0.2 0.87,0.3 1.34,0.3 0.67,0 1.26,-0.17 1.79,-0.52 0.53,-0.35 0.94,-0.82 1.24,-1.4l1.89 1.21z"/>
 </g>
</svg>
